{
  "accessors": [
    {
      "bufferView": 2,
      "componentType": 5126,
      "count": 41,
      "max": [
        6.4268999099731445,
        6.5494999885559082,
        23.389400482177734
      ],
      "min": [
        0,
        0,
        0
      ],
      "type": "VEC3"
    },
    {
      "bufferView": 2,
      "byteOffset": 492,
      "componentType": 5126,
      "count": 41,
      "max": [
        0.9944920539855957,
        0.9957842230796814,
        0.9179040789604187
      ],
      "min": [
        -0.99714219570159912,
        -0.98526936769485474,
        -0.99443691968917847
      ],
      "type": "VEC3"
    },
    {
      "bufferView": 3,
      "componentType": 5126,
      "count": 41,
      "max": [
        0.76694703102111816,
        0.99131393432617188,
        0.99822574853897095,
        1
      ],
      "min": [
        -0.9934532642364502,
        -0.9857555627822876,
        -0.99768048524856567,
        -1
      ],
      "type": "VEC4"
    },
    {
      "bufferView": 1,
      "componentType": 5126,
      "count": 41,
      "max": [
        0.63260000944137573,
        0.78060001134872437
      ],
      "min": [
        0.5252000093460083,
        0.18680000305175781
      ],
      "type": "VEC2"
    },
    {
      "bufferView": 0,
      "componentType": 5125,
      "count": 66,
      "max": [
        40
      ],
      "min": [
        0
      ],
      "type": "SCALAR"
    }
  ],
  "asset": {
    "extras": {
      "author": "Luke Steel (https://sketchfab.com/luke.steel)",
      "license": "CC-BY-4.0 (http://creativecommons.org/licenses/by/4.0/)",
      "source": "https://sketchfab.com/models/3258a795471a4fe78dd0834bd2295f5e",
      "title": "Cristal"
    },
    "generator": "Sketchfab-3.18.6",
    "version": "2.0"
  },
  "bufferViews": [
    {
      "buffer": 0,
      "byteLength": 264,
      "byteOffset": 0,
      "name": "floatBufferViews",
      "target": 34963
    },
    {
      "buffer": 0,
      "byteLength": 328,
      "byteOffset": 264,
      "byteStride": 8,
      "name": "floatBufferViews",
      "target": 34962
    },
    {
      "buffer": 0,
      "byteLength": 984,
      "byteOffset": 592,
      "byteStride": 12,
      "name": "floatBufferViews",
      "target": 34962
    },
    {
      "buffer": 0,
      "byteLength": 656,
      "byteOffset": 1576,
      "byteStride": 16,
      "name": "floatBufferViews",
      "target": 34962
    }
  ],
  "buffers": [
    {
      "byteLength": 2232,
      "uri": "scene.bin"
    }
  ],
  "images": [
    {
      "uri": "textures/Material__25_baseColor.png"
    },
    {
      "uri": "textures/Material__25_emissive.png"
    }
  ],
  "materials": [
    {
      "doubleSided": true,
      "emissiveFactor": [
        0,
        0,
        0
      ],
      "emissiveTexture": {
        "index": 1,
        "texCoord": 0
      },
      "name": "Material__25",
      "pbrMetallicRoughness": {
        "baseColorFactor": [
          1,
          1,
          1,
          1
        ],
        "baseColorTexture": {
          "index": 0,
          "texCoord": 0
        },
        "metallicFactor": 0,
        "roughnessFactor": 0.59999999999999998
      }
    }
  ],
  "meshes": [
    {
      "primitives": [
        {
          "attributes": {
            "NORMAL": 1,
            "POSITION": 0,
            "TANGENT": 2,
            "TEXCOORD_0": 3
          },
          "indices": 4,
          "material": 0,
          "mode": 4
        }
      ]
    }
  ],
  "nodes": [
    {
      "children": [
        1
      ],
      "name": "RootNode (gltf orientation matrix)",
      "rotation": [
        -0.70710678118654746,
        -0,
        -0,
        0.70710678118654757
      ]
    },
    {
      "children": [
        2
      ],
      "name": "RootNode (model correction matrix)"
    },
    {
      "children": [
        3
      ],
      "matrix": [
        1,
        0,
        0,
        0,
        0,
        1,
        0,
        0,
        0,
        0,
        1,
        0,
        -3.8666000366210938,
        -3.3942999839782715,
        0.00019999999494757503,
        1
      ],
      "name": "Cristal.obj.cleaner.materialmerger.gles"
    },
    {
      "children": [
        4
      ],
      "name": ""
    },
    {
      "mesh": 0,
      "name": ""
    }
  ],
  "samplers": [
    {
      "magFilter": 9729,
      "minFilter": 9987,
      "wrapS": 10497,
      "wrapT": 10497
    }
  ],
  "scene": 0,
  "scenes": [
    {
      "name": "OSG_Scene",
      "nodes": [
        0
      ]
    }
  ],
  "textures": [
    {
      "sampler": 0,
      "source": 0
    },
    {
      "sampler": 0,
      "source": 1
    }
  ]
}

